<svg xmlns="http://www.w3.org/2000/svg" aria-hidden="true" style="position:absolute;width:0;height:0;overflow:hidden">
  <defs>
    <symbol id="Done" viewBox="0 0 32 32">
      <path fill="none"  stroke-width="2" d="M16 1.2c8.174 0 14.8 6.626 14.8 14.8S24.174 30.8 16 30.8 1.2 24.174 1.2 16 7.826 1.2 16 1.2z" />
      <path  d="M21.675 11.796a1.104 1.104 0 0 1 0 1.502l-6.252 6.905a.97.97 0 0 1-1.424 0l-3.022-3.187c-.393-.415-.393-1.088 0-1.502s1.031-.415 1.424 0l2.309 2.436 5.54-6.154a.97.97 0 0 1 1.424 0z" />
    </symbol>
    <symbol id="Add" viewBox="0 0 32 32">
      <path  d="M27.314 4.686C24.292 1.664 20.274 0 16 0S7.708 1.664 4.686 4.686C1.664 7.708 0 11.726 0 16s1.664 8.292 4.686 11.314C7.708 30.336 11.726 32 16 32s8.292-1.664 11.314-4.686S32 20.274 32 16s-1.664-8.292-4.686-11.314zM16 30.125C8.211 30.125 1.875 23.788 1.875 16S8.211 1.875 16 1.875 30.125 8.211 30.125 16 23.788 30.125 16 30.125z" />
      <path  d="M23 17H9a1 1 0 0 1 0-2h14a1 1 0 0 1 0 2z" />
      <path  d="M16 24a1 1 0 0 1-1-1V9a1 1 0 0 1 2 0v14a1 1 0 0 1-1 1z" />
    </symbol>
    <symbol id="Trash" viewBox="0 0 32 32">
      <path  d="M28.232 5.555h-6.103V4.56a3.23 3.23 0 0 0-3.226-3.226h-5.802A3.23 3.23 0 0 0 9.875 4.56v.995H3.772c-.452 0-.814.362-.814.814s.362.814.814.814h1.471v19.129a4.36 4.36 0 0 0 4.354 4.354h12.809a4.36 4.36 0 0 0 4.354-4.354V7.183h1.471c.452 0 .814-.362.814-.814s-.362-.814-.814-.814zM11.503 4.56c0-.88.718-1.598 1.598-1.598h5.802c.88 0 1.598.718 1.598 1.598v.995h-8.998V4.56zm13.629 21.753a2.73 2.73 0 0 1-2.726 2.726H9.597a2.73 2.73 0 0 1-2.726-2.726V7.184h18.267v19.129h-.006z" />
      <path  d="M16.002 26.12a.81.81 0 0 0 .814-.814V10.917c0-.452-.362-.814-.814-.814s-.814.362-.814.814V25.3c0 .452.362.82.814.82zM10.69 25.221a.81.81 0 0 0 .814-.814V11.809c0-.452-.362-.814-.814-.814s-.814.362-.814.814v12.598c0 .452.368.814.814.814zM21.315 25.221a.81.81 0 0 0 .814-.814V11.809c0-.452-.362-.814-.814-.814s-.814.362-.814.814v12.598a.81.81 0 0 0 .814.814z" />
    </symbol>
  </defs>
</svg>
